<svg xmlns="http://www.w3.org/2000/svg" viewBox="0 0 511.999 511.999" width="512" height="512"><path d="M477.826 367.114l-58.144-58.145c-16.03-16.03-42.115-16.03-58.144 0l-26.43 26.43c-12.144 12.143-31.905 12.14-44.045.004L176.508 220.75c-12.172-12.173-12.174-31.874 0-44.049l26.43-26.429c15.96-15.959 16.182-41.962-.016-58.159l-58.13-57.946c-16.03-16.03-42.113-16.03-58.1-.042L65.504 55.128c-57.807 57.806-57.807 151.864-.003 209.669l181.509 181.604c57.942 57.943 151.724 57.948 209.671 0l21.144-21.144c16.03-16.03 16.03-42.113 0-58.143zM106.031 53.548c5.343-5.343 14.036-5.344 19.396.015l58.13 57.946c5.355 5.356 5.355 14.024 0 19.381l-9.692 9.69-77.476-77.475 9.642-9.557zm160.365 373.474L84.886 245.417c-44.724-44.724-47.182-114.95-7.56-162.612l77.25 77.25c-20.298 23.011-19.452 58.075 2.547 80.073l114.551 114.648.004.003c21.974 21.976 57.036 22.877 80.075 2.55l77.252 77.253c-47.509 39.554-117.578 37.472-162.61-7.56zm192.05-21.146l-9.691 9.692-77.526-77.527 9.69-9.69c5.344-5.344 14.038-5.345 19.382 0l58.144 58.144c5.344 5.344 5.344 14.039.001 19.381z" data-original="#000000" class="active-path"/></svg>