<svg xmlns="http://www.w3.org/2000/svg" viewBox="0 0 511.998 511.998"><path d="M320.563 357.044h53.83v-53.83c0-9.518 7.716-17.233 17.233-17.233h18.412V72.351c0-24.854-20.149-45.003-45.003-45.003H87.325c-24.854 0-45.003 20.149-45.003 45.003v41.469h21.069c12.487 0 22.611 10.123 22.611 22.61 0 12.488-10.123 22.611-22.611 22.611H42.322v104.33h21.069c12.487 0 22.611 10.123 22.611 22.611 0 12.487-10.123 22.61-22.611 22.61H42.322v41.469c0 24.854 20.149 45.003 45.003 45.003h216.004v-20.786c0-9.518 7.716-17.234 17.234-17.234zM163.251 338.82c-16.918 0-30.634-13.715-30.634-30.634v-38.714c0-33.021 17.107-62.043 42.94-78.696-9.324-11.322-14.925-25.826-14.925-41.639 0-36.2 29.346-65.546 65.547-65.546s65.547 29.346 65.547 65.546c0 15.813-5.601 30.317-14.925 41.639 25.833 16.652 42.94 45.675 42.94 78.696v38.714c0 16.918-13.715 30.634-30.634 30.634H163.251z" fill="#4cc1eb"/><path d="M319.742 308.187v-38.714c0-33.021-17.107-62.043-42.94-78.696-12.022 14.599-30.234 23.908-50.622 23.908s-38.6-9.309-50.622-23.908c-25.833 16.652-42.94 45.675-42.94 78.696v38.714c0 16.918 13.715 30.634 30.634 30.634h125.857c16.918-.001 30.633-13.716 30.633-30.634z" fill="#abb0b7"/><path d="M226.179 214.685c20.388 0 38.6-9.309 50.622-23.908 9.324-11.322 14.925-25.826 14.925-41.639 0-36.2-29.346-65.546-65.547-65.546s-65.547 29.346-65.547 65.546c0 15.813 5.601 30.317 14.925 41.639 12.023 14.598 30.235 23.908 50.622 23.908z" fill="#e5eaed"/><g fill="#f8c55a"><path d="M86.001 136.43c0-12.487-10.123-22.61-22.611-22.61H32.611C20.123 113.82 10 123.943 10 136.43c0 12.488 10.123 22.611 22.611 22.611h30.78c12.487 0 22.61-10.123 22.61-22.611zM86.001 285.98c0-12.488-10.123-22.611-22.611-22.611H32.611C20.123 263.371 10 273.493 10 285.98s10.123 22.61 22.611 22.61h30.78c12.487.002 22.61-10.121 22.61-22.61z"/></g><path d="M484.767 357.044h-53.83v-53.83c0-9.518-7.716-17.233-17.233-17.233h-22.078c-9.518 0-17.233 7.715-17.233 17.233v53.83h-53.83c-9.518 0-17.233 7.715-17.233 17.233V396.355c0 9.518 7.716 17.233 17.233 17.233h53.83v53.83c0 9.518 7.716 17.233 17.233 17.233h22.078c9.518 0 17.233-7.716 17.233-17.233v-53.83h53.83c9.518 0 17.233-7.715 17.233-17.233v-22.078c0-9.517-7.716-17.233-17.233-17.233z" fill="#93ca66"/><path d="M329.741 269.473c0-32.753-15.287-61.999-39.097-80.99a75.082 75.082 0 0011.082-39.345c0-41.656-33.89-75.546-75.546-75.546s-75.547 33.89-75.547 75.546a75.089 75.089 0 0011.03 39.264 104.941 104.941 0 00-18.199 18.748c-3.326 4.409-2.449 10.68 1.959 14.006 4.409 3.327 10.679 2.448 14.006-1.959a84.738 84.738 0 0114.837-15.253c13.548 12.84 31.82 20.741 51.915 20.741 20.059 0 38.303-7.874 51.844-20.674 19.303 15.32 31.718 38.961 31.718 65.462v38.714c0 11.378-9.256 20.634-20.633 20.634H163.251c-11.378 0-20.634-9.256-20.634-20.634V281.11c0-5.522-4.478-10-10-10s-10 4.478-10 10v27.077c0 22.405 18.229 40.634 40.634 40.634h125.857c22.405 0 40.633-18.229 40.633-40.634v-38.714zm-55.866-91.905a55.96 55.96 0 01-13.818 15.545c-9.384 7.246-21.131 11.571-33.877 11.571-12.782 0-24.561-4.351-33.958-11.635a55.954 55.954 0 01-13.789-15.57 55.192 55.192 0 01-7.8-28.342c0-30.628 24.918-55.546 55.547-55.546 30.628 0 55.546 24.918 55.546 55.546a55.209 55.209 0 01-7.851 28.431z"/><path d="M126.39 249.689c.25.61.561 1.19.92 1.73.36.55.78 1.06 1.24 1.52s.97.88 1.52 1.24c.54.36 1.12.67 1.73.92.6.25 1.23.45 1.87.57.64.13 1.3.2 1.95.2.66 0 1.31-.07 1.96-.2.64-.12 1.26-.32 1.87-.57.6-.25 1.18-.56 1.72-.92.55-.36 1.06-.78 1.52-1.24s.88-.97 1.25-1.52c.36-.54.67-1.12.92-1.73a9.837 9.837 0 00.76-3.819c0-.65-.061-1.311-.19-1.96-.13-.631-.32-1.261-.57-1.87-.25-.601-.56-1.181-.92-1.721-.37-.55-.79-1.06-1.25-1.52s-.97-.88-1.52-1.24a10.217 10.217 0 00-3.59-1.5 9.898 9.898 0 00-3.91 0c-.64.13-1.271.33-1.87.58-.61.25-1.19.561-1.73.92-.55.36-1.06.78-1.52 1.24s-.88.97-1.24 1.52c-.359.54-.67 1.12-.92 1.721-.25.609-.439 1.239-.57 1.87a10.02 10.02 0 00-.199 1.96 10.052 10.052 0 00.769 3.819z"/><path d="M484.767 347.044h-43.83v-43.829c0-12.836-8.929-23.618-20.899-26.482V72.351c0-30.329-24.674-55.003-55.003-55.003H87.325c-30.329 0-55.004 24.674-55.004 55.003v31.476C14.473 103.983 0 118.545 0 136.431c0 17.885 14.473 32.446 32.321 32.603v84.345C14.473 253.535 0 268.096 0 285.98s14.473 32.446 32.321 32.603v31.476c0 30.329 24.675 55.003 55.004 55.003h207.44c3.641 10.757 13.826 18.525 25.797 18.525h43.83v43.83c0 15.017 12.217 27.233 27.233 27.233h22.077c15.017 0 27.233-12.217 27.233-27.233v-43.83h43.83c15.017 0 27.233-12.217 27.233-27.233v-22.078c.002-15.016-12.215-27.232-27.231-27.232zM20 136.431c0-6.856 5.502-12.441 12.321-12.597.097-.002.191-.015.289-.015h30.78c6.953 0 12.61 5.657 12.61 12.611 0 6.953-5.657 12.61-12.61 12.61H32.61c-.098 0-.192-.013-.289-.015C25.502 148.871 20 143.286 20 136.431zm0 149.549c0-6.855 5.502-12.44 12.321-12.596.097-.002.191-.015.289-.015h30.78c6.953 0 12.61 5.657 12.61 12.61s-5.657 12.61-12.61 12.61H32.61c-.098 0-.192-.013-.289-.015C25.502 298.421 20 292.837 20 285.98zm273.329 88.297v10.786H87.325c-19.301 0-35.004-15.702-35.004-35.003v-31.469H63.39c17.981 0 32.61-14.629 32.61-32.61s-14.629-32.61-32.61-32.61H52.321v-84.33H63.39c17.981 0 32.61-14.629 32.61-32.61 0-17.982-14.629-32.611-32.61-32.611H52.321V72.351c0-19.301 15.703-35.003 35.004-35.003h277.709c19.301 0 35.003 15.702 35.003 35.003v203.631h-8.411c-15.017 0-27.233 12.217-27.233 27.233v43.829h-43.83c-15.017 0-27.234 12.216-27.234 27.233zM492 396.355c0 3.988-3.245 7.233-7.233 7.233h-53.83c-5.522 0-10 4.478-10 10v53.83c0 3.988-3.245 7.233-7.233 7.233h-22.077c-3.988 0-7.233-3.245-7.233-7.233v-53.83c0-4.771-3.345-8.757-7.817-9.754a10.004 10.004 0 00-2.183-.246h-53.83c-3.988 0-7.233-3.245-7.233-7.233v-22.078c0-3.988 3.245-7.233 7.233-7.233h53.83c5.522 0 10-4.478 10-10v-53.829c0-3.988 3.245-7.233 7.233-7.233H413.704a7.238 7.238 0 017.233 7.233v53.829c0 5.522 4.478 10 10 10h53.83c3.988 0 7.233 3.245 7.233 7.233v22.078z"/></svg>