<svg xmlns="http://www.w3.org/2000/svg" width="512" height="512"><path d="M335.691 226.258c0-9.126-7.397-16.523-16.523-16.523h-170.19c-9.127 0-16.524 7.397-16.524 16.523s7.397 16.523 16.523 16.523h170.191c9.126 0 16.523-7.397 16.523-16.523zM148.977 275.828c-9.126 0-16.523 7.398-16.523 16.524 0 9.125 7.397 16.523 16.523 16.523H252.34c9.126 0 16.524-7.398 16.524-16.524 0-9.125-7.398-16.523-16.524-16.523H148.977z" data-original="#000000" class="active-path"/><path d="M187.807 434.453h-55.261c-18.222 0-33.047-14.825-33.047-33.047V110.594c0-18.222 14.825-33.046 33.047-33.046H335.69c18.222 0 33.047 14.824 33.047 33.046v101.62c0 9.125 7.398 16.522 16.524 16.522 9.126 0 16.523-7.397 16.523-16.523V110.594c0-36.444-29.65-66.093-66.094-66.093H132.546c-36.444 0-66.094 29.65-66.094 66.093v290.812c0 36.444 29.65 66.093 66.094 66.093h55.261c9.126 0 16.524-7.397 16.524-16.523s-7.398-16.523-16.524-16.523z" data-original="#000000" class="active-path"/><path d="M431.052 283.736c-19.327-19.327-50.775-19.328-70.09-.013l-90.715 90.515a16.528 16.528 0 00-4.14 6.894l-19.756 65.04a16.523 16.523 0 0020.222 20.727l66.692-18.474a16.518 16.518 0 007.262-4.23l90.526-90.355c19.327-19.327 19.327-50.775 0-70.104zM320.256 417.738l-33.552 9.294 9.819-32.327 61.21-61.075 23.372 23.373-60.849 60.735zm87.441-87.275l-3.201 3.194-23.369-23.368 3.191-3.184c6.443-6.442 16.925-6.442 23.368 0 6.442 6.443 6.442 16.925.011 23.358zM319.168 143.641h-170.19c-9.127 0-16.524 7.398-16.524 16.523s7.397 16.524 16.523 16.524h170.191c9.126 0 16.523-7.398 16.523-16.524s-7.397-16.523-16.523-16.523z" data-original="#000000" class="active-path"/></svg>