<?xml version="1.0"?>
<svg xmlns="http://www.w3.org/2000/svg" height="512px" viewBox="0 -96 480 480" width="512px" class=""><g><path d="m222.457031 148.496094c10.652344 6.984375 24.433594 6.984375 35.085938 0l30.777343-20.175782 177.710938-116.6875c-2.820312-2.335937-6.367188-3.621093-10.03125-3.632812h-432c-3.664062.011719-7.210938 1.296875-10.03125 3.632812l177.710938 116.6875zm0 0" fill="#64c37d" data-original="#64C37D" class="" style="fill:#64C37D"/><path d="m466.03125 11.632812-177.710938 116.6875-30.777343 20.175782c-10.652344 6.984375-24.433594 6.984375-35.085938 0l-30.777343-20.175782-177.710938-116.6875c-3.761719 3.003907-5.957031 7.554688-5.96875 12.367188v240c0 8.835938 7.164062 16 16 16h432c8.835938 0 16-7.164062 16-16v-240c-.011719-4.8125-2.207031-9.363281-5.96875-12.367188zm0 0" fill="#64c37d" data-original="#64C37D" class="" style="fill:#64C37D"/><path d="m470.953125 5.375c-.195313-.179688-.398437-.347656-.609375-.503906-4.121094-3.144532-9.160156-4.855469-14.34375-4.871094h-432c-5.183594.015625-10.222656 1.726562-14.34375 4.871094-.214844.144531-.390625.335937-.59375.496094-5.699219 4.507812-9.0351562 11.367187-9.0625 18.632812v240c0 13.253906 10.746094 24 24 24h432c13.253906 0 24-10.746094 24-24v-240c-.027344-7.261719-3.355469-14.117188-9.046875-18.625zm-217.792969 136.441406c-7.992187 5.238282-18.328125 5.238282-26.320312 0l-191.640625-125.816406h409.601562zm210.839844 122.183594c0 4.417969-3.582031 8-8 8h-432c-4.417969 0-8-3.582031-8-8v-240c.046875-.4375.136719-.871094.265625-1.296875l162.824219 106.898437-72.746094 72.742188c-2.078125 2.007812-2.914062 4.984375-2.179688 7.78125.730469 2.796875 2.914063 4.980469 5.710938 5.710938 2.796875.734374 5.773438-.101563 7.78125-2.179688l75.085938-75.089844 25.320312 16.632813c13.316406 8.75 30.558594 8.75 43.875 0l25.320312-16.613281 75.085938 75.085937c3.140625 3.03125 8.128906 2.988281 11.214844-.097656 3.085937-3.085938 3.128906-8.074219.097656-11.214844l-72.746094-72.757813 162.824219-106.898437c.128906.425781.21875.859375.265625 1.296875zm0 0" fill="#231f20" data-original="#231F20" class="active-path" style="fill:#231F20"/></g> </svg>
