<svg xmlns="http://www.w3.org/2000/svg" height="512" width="512" viewBox="0 0 479.058 479.058"><path d="M408.602 83.461H70.456c-21.515 0-39.017 17.502-39.017 39.018v234.1c0 21.516 17.502 39.018 39.017 39.018h338.146c21.515 0 39.017-17.502 39.017-39.017V122.479c0-21.516-17.502-39.018-39.017-39.018zm0 26.012c1.767 0 3.448.366 4.985 1.006L239.529 261.336 65.471 110.48a12.946 12.946 0 014.984-1.006zm0 260.112H70.456c-7.176 0-13.006-5.83-13.006-13.006V137.96l173.557 150.416c2.451 2.12 5.487 3.175 8.522 3.175s6.07-1.053 8.522-3.175L421.608 137.96v218.62c-.001 7.175-5.83 13.005-13.006 13.005z" data-original="#000000" class="active-path"/></svg>